custom-analysis
version=1
nRows=4
nColumns=98
inDegrees=no

This file contains tibia displacement and acting force.

Units are S.I. units (seconds, meters, Newtons, ...)
Angles are in degrees.

endheader
time	APT	SIT	knee_angle	aACL_R_force	pACL_R_force	aPCL_R_force	pPCL_R_force	aMCL_R_force	mMCL_R_force	pMCL_R_force	aLCL_R_force	mLCL_R_force	pLCL_R_force	aPCL_L_force	pPCL_L_force	aMCL_L_force	aLCL_L_force	aACL_R_length	pACL_R_length	aPCL_R_length	pPCL_R_length	aMCL_R_length	mMCL_R_length	pMCL_R_length	aLCL_R_length	mLCL_R_length	pLCL_R_length	aPCL_L_length	pPCL_L_length	aMCL_L_length	aLCL_L_length	aACL_R_strain	pACL_R_strain	aPCL_R_strain	pPCL_R_strain	aMCL_R_strain	mMCL_R_strain	pMCL_R_strain	aLCL_R_strain	mLCL_R_strain	pLCL_R_strain	aPCL_L_strain	pPCL_L_strain	aMCL_L_strain	aLCL_L_strain	femur_lat_meniscii_r.femur_lat_r.force.X	femur_lat_meniscii_r.femur_lat_r.force.Y	femur_lat_meniscii_r.femur_lat_r.force.Z	femur_lat_meniscii_r.femur_lat_r.torque.X	femur_lat_meniscii_r.femur_lat_r.torque.Y	femur_lat_meniscii_r.femur_lat_r.torque.Z	femur_lat_meniscii_r.meniscus_lat_r.force.X	femur_lat_meniscii_r.meniscus_lat_r.force.Y	femur_lat_meniscii_r.meniscus_lat_r.force.Z	femur_lat_meniscii_r.meniscus_lat_r.torque.X	femur_lat_meniscii_r.meniscus_lat_r.torque.Y	femur_lat_meniscii_r.meniscus_lat_r.torque.Z	femur_med_meniscii_r.femur_med_r.force.X	femur_med_meniscii_r.femur_med_r.force.Y	femur_med_meniscii_r.femur_med_r.force.Z	femur_med_meniscii_r.femur_med_r.torque.X	femur_med_meniscii_r.femur_med_r.torque.Y	femur_med_meniscii_r.femur_med_r.torque.Z	femur_med_meniscii_r.meniscus_med_r.force.X	femur_med_meniscii_r.meniscus_med_r.force.Y	femur_med_meniscii_r.meniscus_med_r.force.Z	femur_med_meniscii_r.meniscus_med_r.torque.X	femur_med_meniscii_r.meniscus_med_r.torque.Y	femur_med_meniscii_r.meniscus_med_r.torque.Z	femur_med_tibia_r.tibia_upper_r.force.X	femur_med_tibia_r.tibia_upper_r.force.Y	femur_med_tibia_r.tibia_upper_r.force.Z	femur_med_tibia_r.tibia_upper_r.torque.X	femur_med_tibia_r.tibia_upper_r.torque.Y	femur_med_tibia_r.tibia_upper_r.torque.Z	femur_med_tibia_r.femur_med_r.force.X	femur_med_tibia_r.femur_med_r.force.Y	femur_med_tibia_r.femur_med_r.force.Z	femur_med_tibia_r.femur_med_r.torque.X	femur_med_tibia_r.femur_med_r.torque.Y	femur_med_tibia_r.femur_med_r.torque.Z	femur_lat_tibia_r.tibia_upper_r.force.X	femur_lat_tibia_r.tibia_upper_r.force.Y	femur_lat_tibia_r.tibia_upper_r.force.Z	femur_lat_tibia_r.tibia_upper_r.torque.X	femur_lat_tibia_r.tibia_upper_r.torque.Y	femur_lat_tibia_r.tibia_upper_r.torque.Z	femur_lat_tibia_r.femur_lat_r.force.X	femur_lat_tibia_r.femur_lat_r.force.Y	femur_lat_tibia_r.femur_lat_r.force.Z	femur_lat_tibia_r.femur_lat_r.torque.X	femur_lat_tibia_r.femur_lat_r.torque.Y	femur_lat_tibia_r.femur_lat_r.torque.Z	femur_lat_meniscii_force_r	femur_med_meniscii_force_r	femur_lat_tibia_force_r	femur_med_tibia_force_r
      0.00000000	      0.00000000	      0.00000000	     89.99998384	      3.75010814	     17.47868432	   1287.55116648	    863.31441598	     10.27620863	      2.10632205	      0.00000000	      0.00000000	      0.00000000	      0.00000000	      0.00000000	      0.00000000	      0.00000001	      0.00000000	      0.03169881	      0.02626841	      0.03908174	      0.03581353	      0.06238372	      0.06085633	      0.05779529	      0.05007677	      0.04462342	      0.04000359	      0.01525851	      0.01651186	      0.06550154	      0.04489616	      0.02236100	      0.04827516	      0.25683742	      0.19826575	      0.03926107	      0.01777493	     -0.01588190	     -0.10540772	     -0.20766100	     -0.23573691	      0.00000079	     -0.32847694	      0.00000060	     -0.00000086	     82.06651735	    -20.57321461	      1.32625263	     -0.00932964	      1.90435437	     33.26068052	    -82.06651735	     20.57321461	     -1.32625263	     -0.61873248	     -2.35115890	     -1.32810305	      0.00000000	      0.00000000	      0.00000000	      0.00000000	      0.00000000	      0.00000000	      0.00000000	      0.00000000	      0.00000000	      0.00000000	      0.00000000	      0.00000000	   -483.34235029	    -22.90318186	    230.23142098	     -2.29683747	     12.10757306	     -3.62339923	    483.34235029	     22.90318186	   -230.23142098	     93.58299608	     -8.19292073	    195.65680745	      0.00000000	      0.00000000	      0.00000000	      0.00000000	      0.00000000	      0.00000000	      0.00000000	      0.00000000	      0.00000000	      0.00000000	      0.00000000	      0.00000000	     84.61636588	      0.00000000	      0.00000000	    535.86461959
      0.00100000	      0.00005263	      0.00008568	     89.99998384	    -34.13560827	    -39.24338059	   1211.86090980	    694.95786692	    -80.76252065	    -96.82060530	      0.00000000	      0.00000000	      0.00000000	      0.00000000	      0.00000000	      0.00000000	      0.00000001	      0.00000000	      0.03164179	      0.02618972	      0.03898636	      0.03571834	      0.06230812	      0.06077455	      0.05771102	      0.04999143	      0.04453641	      0.03991274	      0.01525851	      0.01651186	      0.06550154	      0.04489616	      0.02052188	      0.04513473	      0.25377016	      0.19508106	      0.03800156	      0.01640729	     -0.01731680	     -0.10693226	     -0.20920607	     -0.23747262	      0.00000079	     -0.32847694	      0.00000060	     -0.00000086	    128.44437468	    -63.37717547	     32.56785303	    -11.58327454	      3.40322442	     52.46674948	   -128.44437468	     63.37717547	    -32.56785303	     -1.62985054	     -4.93921169	     -3.34453526	      0.00000000	      0.00000000	      0.00000000	      0.00000000	      0.00000000	      0.00000000	      0.00000000	      0.00000000	      0.00000000	      0.00000000	      0.00000000	      0.00000000	   -748.14270665	     58.48896577	    230.94127023	     -1.74263070	     13.96188662	     -9.19270952	    748.14270665	    -58.48896577	   -230.94127023	     92.91677392	    -11.30501015	    303.88179763	      0.00000000	      0.00000000	      0.00000000	      0.00000000	      0.00000000	      0.00000000	      0.00000000	      0.00000000	      0.00000000	      0.00000000	      0.00000000	      0.00000000	    146.88529133	      0.00000000	      0.00000000	    785.15752491
      0.00220116	      0.00020975	      0.00026817	     89.99998384	    -38.60517874	    -56.59111620	   1171.06424465	    651.23706277	    -68.42232595	    -87.92716555	      0.00000000	      0.00000000	      0.00000000	      0.00000000	      0.00000000	      0.00000000	      0.00000001	      0.00000000	      0.03151443	      0.02599886	      0.03877260	      0.03550273	      0.06215747	      0.06060618	      0.05753529	      0.04981345	      0.04435369	      0.03971766	      0.01525851	      0.01651186	      0.06550154	      0.04489616	      0.01641405	      0.03751822	      0.24689580	      0.18786680	      0.03549189	      0.01359150	     -0.02030911	     -0.11011183	     -0.21245044	     -0.24119966	      0.00000079	     -0.32847694	      0.00000060	     -0.00000086	    131.81360604	    -97.07935661	     74.30249059	    -27.59284406	      4.01779180	     54.27188445	   -131.81360604	     97.07935661	    -74.30249059	     -2.31430811	     -6.71697881	     -4.74280128	      0.00000000	      0.00000000	      0.00000000	      0.00000000	      0.00000000	      0.00000000	      0.00000000	      0.00000000	      0.00000000	      0.00000000	      0.00000000	      0.00000000	  -1121.34615294	    144.21970484	    259.78865995	     -1.37502533	     17.81445273	    -15.83619892	   1121.34615294	   -144.21970484	   -259.78865995	    103.60761300	    -16.01181866	    456.11001056	      0.00000000	      0.00000000	      0.00000000	      0.00000000	      0.00000000	      0.00000000	      0.00000000	      0.00000000	      0.00000000	      0.00000000	      0.00000000	      0.00000000	    179.77788608	      0.00000000	      0.00000000	   1160.04597573
      0.00340233	      0.00041144	      0.00039913	     89.99998384	    -28.75738563	    -53.06201673	   1158.54927048	    667.86746311	    -23.17764062	    -43.65326368	      0.00000000	      0.00000000	      0.00000000	      0.00000000	      0.00000000	      0.00000000	      0.00000001	      0.00000000	      0.03140570	      0.02580945	      0.03860088	      0.03532554	      0.06207172	      0.06049901	      0.05741939	      0.04969553	      0.04423043	      0.03957768	      0.01525851	      0.01651186	      0.06550154	      0.04489616	      0.01290734	      0.02995946	      0.24137344	      0.18193830	      0.03406330	      0.01179916	     -0.02228263	     -0.11221843	     -0.21463910	     -0.24387387	      0.00000079	     -0.32847694	      0.00000060	     -0.00000086	    112.80990237	   -107.43721502	     99.39929851	    -37.45909866	      3.89651908	     46.75513615	   -112.80990237	    107.43721502	    -99.39929851	     -2.43489536	     -7.18704142	     -5.03539489	      0.00000000	      0.00000000	      0.00000000	      0.00000000	      0.00000000	      0.00000000	      0.00000000	      0.00000000	      0.00000000	      0.00000000	      0.00000000	      0.00000000	  -1153.47847420	    160.13765493	    237.78039926	     -0.99179747	     17.48911683	    -16.61857014	   1153.47847420	   -160.13765493	   -237.78039926	     94.51076848	    -16.14970625	    469.37931179	      0.00000000	      0.00000000	      0.00000000	      0.00000000	      0.00000000	      0.00000000	      0.00000000	      0.00000000	      0.00000000	      0.00000000	      0.00000000	      0.00000000	    184.79461515	      0.00000000	      0.00000000	   1188.56896192
